# xmcd CD database file
#
# Track frame offsets:
#	151
#	17358
#	40963
#	58428
#	79228
#	94207
#	112224
#	133032
#	150973
#	164783
#	178311
#	191032
#
# Disc length: 2754 seconds
#
# Revision: 0
# Processed by: cddbd v1.5.1PL2 Copyright (c) Steve Scherf et al.
# Submitted via: CDex 1.51
#
DISCID=ab0ac00c
DTITLE=Efren David - Alucinado en tu amor
DYEAR=2006
DGENRE=Salsa
TTITLE0=Alucinado en tu amor(cumbia)
TTITLE1=Piropos(salsa)
TTITLE2=Me duele(cumbia)
TTITLE3=Aún me queda tu amor(salsa)
TTITLE4=Un loco romantico(cumbia)
TTITLE5=Tengo miedo de perderte(cumbia)
TTITLE6=Tambaleate(reggaetón)
TTITLE7=Nunca les fallaré(cumbia)
TTITLE8=Atracción(reggaetón)
TTITLE9=Dame tu torta(reggaetón)
TTITLE10=El fantasmón(reggaetón)
TTITLE11=Y te recuerdo así(salsatón)
EXTD=YEAR: 2006
EXTT0=
EXTT1=
EXTT2=
EXTT3=
EXTT4=
EXTT5=
EXTT6=
EXTT7=
EXTT8=
EXTT9=
EXTT10=
EXTT11=
PLAYORDER=
